<svg xmlns="http://www.w3.org/2000/svg" xmlns:xlink="http://www.w3.org/1999/xlink" width="25" height="25" viewBox="0 0 25 25">
    <defs>
        <path id="a" d="M20.333 23H4.912A.913.913 0 0 1 4 22.088V2.912C4 2.409 4.409 2 4.912 2h12.021c.503 0 .912.409.912.912v10.832h2.488a.74.74 0 0 1 .738.739v7.779a.74.74 0 0 1-.738.738zm-6.082-8.264v4.466h1.786v-4.466h-1.786zM4.991 2.99V22.01H9.34v-7.526a.74.74 0 0 1 .739-.739h6.776V2.991H4.99zM20.08 22.01v-7.273h-3.051v4.962a.496.496 0 0 1-.496.495h-2.777a.496.496 0 0 1-.496-.495v-4.962h-2.93v7.273h9.75zM7.075 10.486c.87 0 1.577.708 1.577 1.577a1.58 1.58 0 0 1-1.577 1.578 1.58 1.58 0 0 1-1.577-1.578c0-.87.707-1.577 1.577-1.577zm0 2.163a.586.586 0 1 0-.002-1.173.586.586 0 0 0 .002 1.173z"/>
    </defs>
    <g fill="none" fill-rule="evenodd">
        <mask id="b" fill="#fff">
            <use xlink:href="#a"/>
        </mask>
        <use fill="#000" fill-rule="nonzero" xlink:href="#a"/>
        <g fill="#049CD5" mask="url(#b)">
            <path d="M0 0h25v25H0z"/>
        </g>
    </g>
</svg>
